<svg xmlns:ev="http://www.w3.org/2001/xml-events" width="803" height="1133" xmlns:xlink="http://www.w3.org/1999/xlink" xmlns="http://www.w3.org/2000/svg" viewBox="0 0 803 1133"><defs/><g id="page1" transform="translate(5.5,5.5)"><rect fill="none" y="0" width="794" height="1123" x="0"/><g id="shape1" transform="translate(371.183000,106.315000)"><path fill="#ffd8d7" stroke="#c00000" stroke-width="2" d="M18.5,37.0L70.3,37.0C80.5,37.0,88.8,28.7,88.8,18.5C88.8,8.3,80.5,.0,70.3,.0L18.5,.0C8.3,.0,.0,8.3,.0,18.5C.0,28.7,8.3,37.0,18.5,37.0z" fill-rule="nonzero"/><text style="fill:#191919;font-family:Microsoft YaHei,PingFang SC,Mircrosoft YaHei,Arial;font-size:12.00pt" xml:space="preserve"><tspan style="font-family:Microsoft YaHei,PingFang SC,Mircrosoft YaHei,Arial" y="24.5" x="19.8">START</tspan></text></g><g id="shape2" transform="translate(370.583000,170.315000)"><path fill="#d7dcff" stroke="#5769bc" stroke-width="1.333330035209656" d="M90.0,90.0L90.0,.0L.0,.0L.0,90.0L90.0,90.0z" fill-rule="nonzero"/><text style="fill:#191919;font-family:Microsoft YaHei,PingFang SC,Mircrosoft YaHei,Arial;font-size:12.00pt" xml:space="preserve"><tspan style="font-family:Microsoft YaHei,PingFang SC,Mircrosoft YaHei,Arial" y="29.0" x="20.1">.C files </tspan><tspan style="font-family:Microsoft YaHei,PingFang SC,Mircrosoft YaHei,Arial" y="51.0" x="7.3">with main </tspan><tspan style="font-family:Microsoft YaHei,PingFang SC,Mircrosoft YaHei,Arial" y="73.0" x="13.2">function</tspan></text></g><g id="shape3" transform="matrix(0.000000,1.000000,-1.000000,0.000000,613.400000,188.315000)"><path fill="none" stroke="#303030" stroke-width="2" d="M27.0,105.0L27.0,152.8M54.0,66.8L54.0,105.0L.0,105.0L.0,66.8" stroke-dasharray="22,10"/><text style="fill:#000000;font-family:Microsoft YaHei,PingFang SC,Mircrosoft YaHei,Arial;font-size:12.00pt" xml:space="preserve" transform="matrix(0.00,-1.00,1.00,0.00,27.0,27.0)"><tspan style="font-family:Microsoft YaHei,PingFang SC,Mircrosoft YaHei,Arial" y="-5.0" x="-53.5">Include </tspan><tspan style="font-family:Microsoft YaHei,PingFang SC,Mircrosoft YaHei,Arial" y="17.0" x="-51.3">main.h</tspan></text></g><g id="shape4" transform="translate(415.583000,143.315000)"><path fill="none" stroke="#191919" stroke-width="1.333330035209656" d="M.0,.0L.0,20.1"/><path fill="#191919" stroke-linecap="round" stroke="#191919" stroke-width="1" d="M3.5,20.1L.0,27.0L-3.5,20.1L3.5,20.1"/></g><g id="shape5" transform="translate(360.583000,285.615000)"><path fill="#d7dcff" stroke="#5769bc" stroke-width="1.333330035209656" d="M110.0,60.0L110.0,.0L.0,.0L.0,60.0L110.0,60.0z" fill-rule="nonzero"/><text style="fill:#191919;font-family:Microsoft YaHei,PingFang SC,Mircrosoft YaHei,Arial;font-size:12.00pt" xml:space="preserve"><tspan style="font-family:Microsoft YaHei,PingFang SC,Mircrosoft YaHei,Arial" y="25.0" x="14.0">Call _printf </tspan><tspan style="font-family:Microsoft YaHei,PingFang SC,Mircrosoft YaHei,Arial" y="47.0" x="23.2">function</tspan></text></g><g id="shape6" transform="translate(340.083000,375.615000)"><path fill="#fff0e7" stroke="#e08a13" stroke-width="1.333330035209656" d="M75.5,76.7L151.0,38.3L75.5,.0L.0,38.3L75.5,76.7z" fill-rule="nonzero"/><text style="fill:#191919;font-family:Microsoft YaHei,PingFang SC,Mircrosoft YaHei,Arial;font-size:12.00pt" xml:space="preserve"><tspan style="font-family:Microsoft YaHei,PingFang SC,Mircrosoft YaHei,Arial" y="44.3" x="25.0">Correct input</tspan></text></g><g id="shape7" transform="translate(365.583000,572.265000)"><path fill="#fff0e7" stroke="#e08a13" stroke-width="1.333330035209656" d="M50.0,60.0L100.0,30.0L50.0,.0L.0,30.0L50.0,60.0z" fill-rule="nonzero"/><text style="fill:#191919;font-family:Microsoft YaHei,PingFang SC,Mircrosoft YaHei,Arial;font-size:12.00pt" xml:space="preserve"><tspan style="font-family:Microsoft YaHei,PingFang SC,Mircrosoft YaHei,Arial" y="36.0" x="24.1">Find %</tspan></text></g><g id="shape8" transform="translate(163.983000,557.265000)"><path fill="#fff0e7" stroke="#e08a13" stroke-width="1.333330035209656" d="M60.5,90.0L121.0,45.0L60.5,.0L.0,45.0L60.5,90.0z" fill-rule="nonzero"/><text style="fill:#191919;font-family:Microsoft YaHei,PingFang SC,Mircrosoft YaHei,Arial;font-size:12.00pt" xml:space="preserve"><tspan style="font-family:Microsoft YaHei,PingFang SC,Mircrosoft YaHei,Arial" y="51.0" x="7.2">End of input ?</tspan></text></g><g id="shape9" transform="translate(277.983000,413.940000)"><path fill="none" stroke="#191919" stroke-width="1.333330035209656" d="M5.1,.0L62.1,.0"/><path fill="#191919" stroke-linecap="round" stroke="#191919" stroke-width="1" d="M.0,.0L6.0,3.5C5.4,2.4,5.1,1.3,5.1,.0C5.1,-1.3,5.4,-2.4,6.0,-3.5L.0,.0"/><rect fill="#ffffff" y="-11.0" width="26.0" height="22.0" x="19.0"/><text style="fill:#191919;font-family:Microsoft YaHei,PingFang SC,Mircrosoft YaHei,Arial;font-size:12.00pt" xml:space="preserve"><tspan style="font-family:Microsoft YaHei,PingFang SC,Mircrosoft YaHei,Arial" y="6.0" x="19.0">NO</tspan></text></g><g id="shape10" transform="translate(415.583000,260.315000)"><path fill="none" stroke="#191919" stroke-width="1.333330035209656" d="M.0,.0L.0,18.4"/><path fill="#191919" stroke-linecap="round" stroke="#191919" stroke-width="1" d="M3.5,18.4L.0,25.3L-3.5,18.4L3.5,18.4"/></g><g id="shape11" transform="translate(365.583000,491.000000)"><path fill="#d7dcff" stroke="#5769bc" stroke-width="1.333330035209656" d="M.0,.0L100.0,.0L100.0,60.0L.0,60.0L.0,.0z" fill-rule="nonzero"/><text style="fill:#191919;font-family:Microsoft YaHei,PingFang SC,Mircrosoft YaHei,Arial;font-size:12.00pt" xml:space="preserve"><tspan style="font-family:Microsoft YaHei,PingFang SC,Mircrosoft YaHei,Arial" y="25.0" x="15.0">Search % </tspan><tspan style="font-family:Microsoft YaHei,PingFang SC,Mircrosoft YaHei,Arial" y="47.0" x="14.6">character</tspan></text></g><g id="shape12" transform="translate(415.583000,452.265000)"><path fill="none" stroke="#191919" stroke-width="1.333330035209656" d="M.0,.0L.0,31.1"/><path fill="#191919" stroke-linecap="round" stroke="#191919" stroke-width="1" d="M3.5,31.1L.0,38.0L-3.5,31.1L3.5,31.1"/><rect fill="#ffffff" y="2.3" width="27.7" height="22.0" x="-12.8"/><text style="fill:#191919;font-family:Microsoft YaHei,PingFang SC,Mircrosoft YaHei,Arial;font-size:12.00pt" xml:space="preserve"><tspan style="font-family:Microsoft YaHei,PingFang SC,Mircrosoft YaHei,Arial" y="19.3" x="-12.8">YES</tspan></text></g><g id="shape13" transform="translate(415.583000,551.000000)"><path fill="none" stroke="#191919" stroke-width="1.333330035209656" d="M.0,.0L.0,14.3"/><path fill="#191919" stroke-linecap="round" stroke="#191919" stroke-width="1" d="M3.5,14.3L.0,21.3L-3.5,14.3L3.5,14.3"/></g><g id="shape14" transform="translate(365.583000,602.265000)"><path fill="none" stroke="#191919" stroke-width="1.333330035209656" d="M.0,.0L-73.7,.0"/><path fill="#191919" stroke-linecap="round" stroke="#191919" stroke-width="1" d="M-73.7,3.5L-80.6,.0L-73.7,-3.5L-73.7,3.5"/></g><g id="shape15" transform="translate(224.483000,557.265000)"><path fill="none" stroke="#191919" stroke-width="1.333330035209656" d="M.0,.0L.0,-36.3L134.2,-36.3"/><path fill="#191919" stroke-linecap="round" stroke="#191919" stroke-width="1" d="M134.2,-39.7L141.1,-36.3L134.2,-32.8L134.2,-39.7"/><rect fill="#ffffff" y="-47.3" width="26.0" height="22.0" x="69.6"/><text style="fill:#191919;font-family:Microsoft YaHei,PingFang SC,Mircrosoft YaHei,Arial;font-size:12.00pt" xml:space="preserve"><tspan style="font-family:Microsoft YaHei,PingFang SC,Mircrosoft YaHei,Arial" y="-30.3" x="69.6">NO</tspan></text></g><g id="shape16" transform="translate(323.429800,662.265000)"><path fill="#d7dcff" stroke="#5769bc" stroke-width="1.333330035209656" d="M.0,.0L184.3,.0L184.3,96.5L.0,96.5L.0,.0z" fill-rule="nonzero"/><text style="fill:#191919;font-family:Microsoft YaHei,PingFang SC,Mircrosoft YaHei,Arial;font-size:12.00pt" xml:space="preserve"><tspan style="font-family:Microsoft YaHei,PingFang SC,Mircrosoft YaHei,Arial" y="32.5" x="18.8">Call the function to </tspan><tspan style="font-family:Microsoft YaHei,PingFang SC,Mircrosoft YaHei,Arial" y="54.5" x="4.2">find the corresponding </tspan><tspan style="font-family:Microsoft YaHei,PingFang SC,Mircrosoft YaHei,Arial" y="76.5" x="60.2">specifier</tspan></text></g><g id="shape17" transform="translate(349.499700,781.265000)"><path fill="#fff0e7" stroke="#e08a13" stroke-width="1.333330035209656" d="M66.1,68.0L132.2,34.0L66.1,.0L.0,34.0L66.1,68.0z" fill-rule="nonzero"/><text style="fill:#191919;font-family:Microsoft YaHei,PingFang SC,Mircrosoft YaHei,Arial;font-size:12.00pt" xml:space="preserve"><tspan style="font-family:Microsoft YaHei,PingFang SC,Mircrosoft YaHei,Arial" y="40.0" x="15.3">Find specifier</tspan></text></g><g id="shape18" transform="translate(415.583000,632.265000)"><path fill="none" stroke="#191919" stroke-width="1.333330035209656" d="M.0,.0L.0,23.1"/><path fill="#191919" stroke-linecap="round" stroke="#191919" stroke-width="1" d="M3.5,23.1L.0,30.0L-3.5,23.1L3.5,23.1"/></g><g id="shape19" transform="translate(415.583000,758.765000)"><path fill="none" stroke="#191919" stroke-width="1.333330035209656" d="M.0,.0L.0,15.6"/><path fill="#191919" stroke-linecap="round" stroke="#191919" stroke-width="1" d="M3.5,15.6L.0,22.5L-3.5,15.6L3.5,15.6"/></g><g id="shape20" transform="translate(415.583000,849.265000)"><path fill="none" stroke="#191919" stroke-width="1.333330035209656" d="M.0,.0L-0.0,44.1"/><path fill="#191919" stroke-linecap="round" stroke="#191919" stroke-width="1" d="M3.5,44.1L-0.0,51.0L-3.5,44.1L3.5,44.1"/><rect fill="#ffffff" y="10.0" width="27.7" height="22.0" x="-12.8"/><text style="fill:#191919;font-family:Microsoft YaHei,PingFang SC,Mircrosoft YaHei,Arial;font-size:12.00pt" xml:space="preserve"><tspan style="font-family:Microsoft YaHei,PingFang SC,Mircrosoft YaHei,Arial" y="27.0" x="-12.8">YES</tspan></text></g><g id="shape21" transform="translate(224.483000,647.265000)"><path fill="none" stroke="#191919" stroke-width="1.333330035209656" d="M.0,.0L.0,371.3L134.2,371.3"/><path fill="#191919" stroke-linecap="round" stroke="#191919" stroke-width="1" d="M134.2,367.8L141.1,371.3L134.2,374.7L134.2,367.8"/><rect fill="#ffffff" y="181.1" width="27.7" height="22.0" x="-12.8"/><text style="fill:#191919;font-family:Microsoft YaHei,PingFang SC,Mircrosoft YaHei,Arial;font-size:12.00pt" xml:space="preserve"><tspan style="font-family:Microsoft YaHei,PingFang SC,Mircrosoft YaHei,Arial" y="198.1" x="-12.8">YES</tspan></text></g><g id="shape22" transform="translate(365.583000,994.260000)"><path fill="#ffd8d7" stroke="#c00000" stroke-width="2" d="M25.0,50.0L75.0,50.0L75.0,50.0C88.8,50.0,100.0,38.8,100.0,25.0C100.0,11.2,88.8,.0,75.0,.0L25.0,.0L25.0,.0C11.2,.0,.0,11.2,.0,25.0C.0,38.8,11.2,50.0,25.0,50.0z" fill-rule="nonzero"/><text style="fill:#191919;font-family:Microsoft YaHei,PingFang SC,Mircrosoft YaHei,Arial;font-size:12.00pt" xml:space="preserve"><tspan style="font-family:Microsoft YaHei,PingFang SC,Mircrosoft YaHei,Arial" y="31.0" x="33.0">END</tspan></text></g><g id="shape23" transform="translate(415.582800,973.047800)"><path fill="none" stroke="#191919" stroke-width="1.333330035209656" d="M.0,.0L.0,14.1"/><path fill="#191919" stroke-linecap="round" stroke="#191919" stroke-width="1" d="M3.5,14.1L.0,21.0L-3.5,14.1L3.5,14.1"/></g><g id="shape24" transform="translate(481.667000,815.265000)"><path fill="none" stroke="#191919" stroke-width="1.333330035209656" d="M.0,.0L85.3,.0L85.3,-401.3L16.3,-401.3"/><path fill="#191919" stroke-linecap="round" stroke="#191919" stroke-width="1" d="M16.3,-397.9L9.4,-401.3L16.3,-404.8L16.3,-397.9"/><rect fill="#ffffff" y="-11.0" width="26.0" height="22.0" x="31.9"/><text style="fill:#191919;font-family:Microsoft YaHei,PingFang SC,Mircrosoft YaHei,Arial;font-size:12.00pt" xml:space="preserve"><tspan style="font-family:Microsoft YaHei,PingFang SC,Mircrosoft YaHei,Arial" y="6.0" x="31.9">NO</tspan></text></g><g id="shape25" transform="translate(201.983000,394.940000)"><path fill="#ffd8d7" stroke="#c00000" stroke-width="2" d="M19.0,38.0L57.0,38.0L57.0,38.0C67.5,38.0,76.0,29.5,76.0,19.0C76.0,8.5,67.5,.0,57.0,.0L19.0,.0L19.0,.0C8.5,.0,.0,8.5,.0,19.0C.0,29.5,8.5,38.0,19.0,38.0z" fill-rule="nonzero"/><text style="fill:#191919;font-family:Microsoft YaHei,PingFang SC,Mircrosoft YaHei,Arial;font-size:12.00pt" xml:space="preserve"><tspan style="font-family:Microsoft YaHei,PingFang SC,Mircrosoft YaHei,Arial" y="25.0" x="24.4">Exit</tspan></text></g><g id="shape26" transform="translate(415.583000,345.615000)"><path fill="none" stroke="#191919" stroke-width="1.333330035209656" d="M.0,.0L.0,23.1"/><path fill="#191919" stroke-linecap="round" stroke="#191919" stroke-width="1" d="M3.5,23.1L.0,30.0L-3.5,23.1L3.5,23.1"/></g><g id="shape27" transform="translate(340.165600,900.000200)"><path fill="#93e8ad" stroke="#00b050" stroke-width="2" d="M132.6,73.0L150.8,.0L18.3,.0L.0,73.0L132.6,73.0z" fill-rule="nonzero"/><text style="fill:#191919;font-family:Microsoft YaHei,PingFang SC,Mircrosoft YaHei,Arial;font-size:12.00pt" xml:space="preserve"><tspan style="font-family:Microsoft YaHei,PingFang SC,Mircrosoft YaHei,Arial" y="20.5" x="33.7">Print result </tspan><tspan style="font-family:Microsoft YaHei,PingFang SC,Mircrosoft YaHei,Arial" y="42.5" x="36.3">with good </tspan><tspan style="font-family:Microsoft YaHei,PingFang SC,Mircrosoft YaHei,Arial" y="64.5" x="43.7">function</tspan></text></g></g></svg>